<svg width="55" height="55" viewBox="0 0 55 55" fill="none" xmlns="http://www.w3.org/2000/svg">
<path d="M27.5 0C12.3119 0 0 12.3124 0 27.5C0 42.6885 12.3119 55 27.5 55C42.6881 55 55 42.6885 55 27.5C55 12.3124 42.6881 0 27.5 0ZM27.5 41.25C25.6014 41.25 24.0625 39.7117 24.0625 37.8125C24.0625 35.9141 25.6014 34.375 27.5 34.375C29.3986 34.375 30.9375 35.9141 30.9375 37.8125C30.9375 39.7117 29.3986 41.25 27.5 41.25ZM30.9375 29.2188H24.0625L22.3438 15.4688C22.3438 14.5196 23.1133 13.75 24.0625 13.75H30.9375C31.8867 13.75 32.6562 14.5196 32.6562 15.4688L30.9375 29.2188Z" fill="#D81325"/>
</svg>
