<svg width="100" height="100" viewBox="0 0 100 100" fill="none" xmlns="http://www.w3.org/2000/svg">
<path d="M56.25 37.5H43.75C42.5984 37.5 41.6666 38.4318 41.6666 39.5834V85.4168C41.6666 86.5684 42.5984 87.5002 43.75 87.5002H56.25C57.4016 87.5002 58.3334 86.5684 58.3334 85.4168V39.5834C58.3334 38.4318 57.4016 37.5 56.25 37.5ZM54.1666 83.3334H45.8332V41.6666H54.1666V83.3334Z" fill="black"/>
<path d="M77.0834 25H64.5834C63.4318 25 62.5 25.9318 62.5 27.0834V85.4168C62.5 86.5684 63.4318 87.5002 64.5834 87.5002H77.0834C78.235 87.5002 79.1668 86.5684 79.1668 85.4168V27.0834C79.1666 25.9318 78.235 25 77.0834 25ZM75 83.3334H66.6666V29.1666H75V83.3334Z" fill="black"/>
<path d="M97.9166 12.5H85.4166C84.265 12.5 83.3332 13.4318 83.3332 14.5834V85.4168C83.3332 86.5684 84.265 87.5002 85.4166 87.5002H97.9166C99.0682 87.5002 100 86.5684 100 85.4168V14.5834C100 13.4318 99.0682 12.5 97.9166 12.5ZM95.8334 83.3334H87.5V16.6666H95.8334V83.3334Z" fill="black"/>
<path d="M35.4166 50H22.9166C21.765 50 20.8332 50.9318 20.8332 52.0834V85.4168C20.8332 86.5684 21.765 87.5002 22.9166 87.5002H35.4166C36.5682 87.5002 37.5 86.5684 37.5 85.4168V52.0834C37.5 50.9318 36.5682 50 35.4166 50ZM33.3334 83.3334H25V54.1666H33.3334V83.3334Z" fill="black"/>
<path d="M14.5834 62.5H2.0834C0.931836 62.5 0 63.4318 0 64.5834V85.4168C0 86.5682 0.931836 87.5 2.0834 87.5H14.5834C15.735 87.5 16.6668 86.5682 16.6668 85.4166V64.5834C16.6666 63.4318 15.735 62.5 14.5834 62.5ZM12.5 83.3334H4.1666V66.6668H12.5V83.3334Z" fill="black"/>
</svg>
