<svg width="40" height="40" viewBox="0 0 40 40" fill="none" xmlns="http://www.w3.org/2000/svg">
<path d="M32.5521 0H7.44789C6.8007 0 6.27601 0.524687 6.27601 1.17188V38.8281C6.27601 39.3021 6.56156 39.7294 6.99945 39.9108C7.14445 39.9709 7.29672 40 7.44765 40C7.75265 40 8.05234 39.881 8.27656 39.6567L20.0002 27.9332L31.7234 39.6567C32.0586 39.9919 32.5627 40.0921 33.0005 39.9108C33.4384 39.7294 33.724 39.3021 33.724 38.8281V1.17188C33.724 0.524687 33.1993 0 32.5521 0ZM20.0002 25.1041C19.6894 25.1041 19.3913 25.2275 19.1716 25.4473L8.61976 35.999V2.34375H31.3801V35.9988L20.8288 25.4473C20.6091 25.2275 20.311 25.1041 20.0002 25.1041Z" fill="black"/>
</svg>
