<svg width="40" height="40" viewBox="0 0 40 40" fill="none" xmlns="http://www.w3.org/2000/svg">
<g clip-path="url(#clip0)">
<path d="M20.1284 37.8713C19.6407 37.8713 19.1761 37.6841 18.8224 37.3442C18.7967 37.3197 15.7529 34.3761 3.45823 22.0814L3.37251 21.9957C3.24609 21.8705 3.18408 21.7985 3.12207 21.7259C1.11434 19.5553 0 16.7326 0 13.7951C0 7.36257 5.23367 2.12891 11.6662 2.12891C14.8234 2.12891 17.822 3.39979 19.9994 5.63781C22.1774 3.39968 25.1768 2.12891 28.3339 2.12891C34.7664 2.12891 40.0001 7.36257 40.0001 13.7951C40.0001 17.0186 38.7086 20.0174 36.3623 22.2448C36.3278 22.2849 36.2965 22.3168 36.2734 22.3393C23.8795 34.733 21.5288 37.2465 21.5063 37.2703C21.1613 37.639 20.6774 37.8576 20.1765 37.87L20.1284 37.8713ZM11.6669 3.38164C5.92424 3.38164 1.25273 8.05315 1.25273 13.7958C1.25273 16.417 2.24936 18.9381 4.05868 20.895C4.12006 20.9657 4.16381 21.0171 4.25656 21.1091L4.34417 21.1968C16.6351 33.4878 19.6632 36.4158 19.6901 36.442C19.8085 36.5559 19.9625 36.6186 20.124 36.6198L20.1503 36.6192C20.3137 36.6148 20.4765 36.5416 20.5917 36.4183C20.6098 36.3982 22.9801 33.8647 35.3862 21.4585L35.4763 21.3615C37.5867 19.3713 38.7493 16.6844 38.7493 13.7964C38.7493 8.05378 34.0778 3.38227 28.3351 3.38227C25.307 3.38227 22.4423 4.69134 20.4752 6.97448L20.0007 7.52478L19.5261 6.97385C17.5597 4.69071 14.6956 3.38164 11.6669 3.38164Z" fill="white"/>
</g>
<defs>
<clipPath id="clip0">
<rect width="40" height="40" fill="white"/>
</clipPath>
</defs>
</svg>
