<svg width="30" height="30" viewBox="0 0 30 30" fill="none" xmlns="http://www.w3.org/2000/svg">
<g clip-path="url(#clip0)">
<path d="M18.2007 22.7172C17.7968 22.7298 17.4932 22.2754 17.6599 21.9074C17.852 21.4293 18.5495 21.4293 18.7415 21.9074C18.9081 22.2754 18.6047 22.7299 18.2007 22.7172Z" fill="#D81325"/>
<path d="M9.8371 26.3762C9.68715 26.3762 9.53715 26.319 9.42278 26.2046L6.39084 23.1727C6.16204 22.9439 6.16204 22.5728 6.39084 22.344C6.61965 22.1152 6.99067 22.1152 7.21954 22.344L10.2515 25.3759C10.4803 25.6047 10.4803 25.9757 10.2515 26.2046C10.137 26.319 9.98704 26.3762 9.8371 26.3762Z" fill="#D81325"/>
<path d="M10.603 23.77C10.453 23.77 10.3031 23.7128 10.1887 23.5983L8.99728 22.407C8.76847 22.1781 8.76847 21.8071 8.99734 21.5783C9.22615 21.3496 9.59716 21.3495 9.82597 21.5783L11.0174 22.7697C11.2462 22.9985 11.2462 23.3695 11.0173 23.5983C10.9029 23.7127 10.7529 23.77 10.603 23.77Z" fill="#D81325"/>
<path d="M30.0001 5.45519C30.0001 5.2998 29.9383 5.15073 29.8284 5.04087L27.5542 2.76726C27.3254 2.53851 26.9545 2.53851 26.7256 2.76732L25.8891 3.6038L25.647 3.36169C25.4182 3.13288 25.0472 3.13288 24.8183 3.36169C24.5895 3.5905 24.5895 3.96152 24.8183 4.19038L25.0605 4.43255L24.6141 4.87898L24.3719 4.63681C24.1431 4.408 23.7721 4.408 23.5432 4.63681C23.3144 4.86562 23.3144 5.23663 23.5432 5.4655L23.7854 5.70767L19.0582 10.4348C16.7638 9.01452 14.4586 9.04323 12.9606 10.5413C12.5355 10.966 12.2169 11.3831 11.9868 11.8161C11.1442 13.401 9.26267 14.8263 7.61009 15.1312C6.37991 15.3584 5.26657 15.9165 4.39036 16.7453C3.26149 17.8134 2.64854 19.2068 2.6179 20.7746C2.57671 22.8782 3.59817 25.1542 5.42056 27.0192C7.25976 28.9012 9.52716 29.9876 11.6414 29.9998C11.6536 29.9998 11.6657 29.9999 11.6778 29.9999C13.2357 29.9999 14.6367 29.4221 15.7313 28.3276C16.6266 27.4321 17.2259 26.2766 17.4644 24.9861C17.4965 24.8123 17.542 24.6327 17.5994 24.4523C17.6978 24.144 17.5275 23.8144 17.2192 23.7161C16.9109 23.6178 16.5812 23.788 16.4829 24.0964C16.4105 24.3235 16.353 24.5512 16.312 24.7732C16.1168 25.8294 15.6294 26.772 14.9026 27.499C14.0327 28.3688 12.9181 28.8279 11.6773 28.8279C11.6677 28.8279 11.6579 28.8279 11.6482 28.8279C9.84497 28.8175 7.88056 27.8597 6.25874 26.2001C4.6545 24.5583 3.75456 22.5892 3.7896 20.7976C3.81403 19.5508 4.3003 18.444 5.19579 17.5966C5.90729 16.9236 6.81573 16.4696 7.82296 16.2835C9.82493 15.9141 12.0113 14.2666 13.0217 12.3661C13.1964 12.0373 13.4474 11.7117 13.7893 11.3701C15.2011 9.95823 17.1274 10.6905 18.2007 11.2924L13.4024 16.0908C12.5142 16.0482 11.6119 16.3652 10.9351 17.0419C10.3182 17.6588 9.97851 18.4789 9.97851 19.3513C9.97851 20.2236 10.3182 21.0437 10.9351 21.6606C11.5518 22.2775 12.3719 22.6172 13.2443 22.6172C14.1167 22.6172 14.9368 22.2775 15.5538 21.6606C16.2304 20.9839 16.5474 20.0816 16.5048 19.1935L21.2984 14.3998C21.8941 15.4812 22.6044 17.4305 21.1209 18.914C20.8694 19.1657 20.5826 19.3805 20.2686 19.5523C20.1103 19.6389 19.9499 19.7356 19.7921 19.84C19.5221 20.0183 19.4478 20.3818 19.6262 20.6518C19.7389 20.8224 19.9254 20.9148 20.1156 20.9148C20.2266 20.9148 20.3386 20.8833 20.4381 20.8176C20.5689 20.7312 20.701 20.6515 20.831 20.5804C21.243 20.3549 21.6195 20.073 21.9497 19.7425C22.8292 18.863 23.249 17.7305 23.1638 16.4672C23.0998 15.5178 22.7537 14.5144 22.1575 13.5408L26.8881 8.81027L27.2318 9.15398C27.3462 9.26841 27.4962 9.3256 27.6461 9.3256C27.7961 9.3256 27.9461 9.26841 28.0604 9.15398C28.2892 8.92517 28.2892 8.55415 28.0604 8.32529L27.7167 7.98157L28.1631 7.53515L28.5069 7.87892C28.6213 7.99335 28.7713 8.05054 28.9212 8.05054C29.0712 8.05054 29.2212 7.99335 29.3355 7.87892C29.5644 7.65011 29.5644 7.27909 29.3355 7.05023L28.9918 6.70646L29.8285 5.86968C29.9384 5.75964 30.0001 5.61058 30.0001 5.45519ZM14.7251 20.8319C14.3295 21.2274 13.8036 21.4452 13.2443 21.4452C12.685 21.4452 12.1591 21.2275 11.7637 20.8319C10.9472 20.0154 10.9472 18.6869 11.7637 17.8706C12.1718 17.4624 12.708 17.2583 13.2443 17.2583C13.7805 17.2583 14.3168 17.4624 14.725 17.8705C15.5413 18.6869 15.5413 20.0155 14.7251 20.8319ZM16.1605 17.8805C16.0082 17.5779 15.806 17.2942 15.5538 17.0419C15.5538 17.0419 15.5537 17.0419 15.5537 17.0418C15.3015 16.7896 15.0178 16.5874 14.7153 16.4352L23.3389 7.81148L24.7843 9.25657L16.1605 17.8805ZM25.613 8.428L24.1677 6.98279L24.6141 6.53636L26.0594 7.98157L25.613 8.428ZM26.888 7.15282L25.4428 5.70761L25.8892 5.26118L27.3345 6.7064L26.888 7.15282ZM26.7179 4.43243L27.1401 4.01021L28.5855 5.45531L28.1631 5.87771L26.7179 4.43243Z" fill="#D81325"/>
<path d="M8.55979 4.66068C8.55979 4.47183 8.46879 4.29458 8.31533 4.18454C8.16187 4.07445 7.96483 4.04509 7.78594 4.10568L3.19441 5.66011C2.95647 5.74068 2.79633 5.96392 2.79633 6.21511V10.6444C2.5483 10.5326 2.27332 10.4704 1.9841 10.4704C0.890098 10.4704 0 11.3605 0 12.4545C0 13.5485 0.890039 14.4386 1.9841 14.4386C3.07816 14.4386 3.9682 13.5486 3.9682 12.4545C3.9682 12.4205 3.9682 6.63534 3.9682 6.63534L7.38785 5.47765V9.08989C7.13982 8.97816 6.86484 8.91593 6.57563 8.91593C5.48156 8.91593 4.59152 9.80597 4.59152 10.9C4.59152 11.9941 5.48156 12.8841 6.57563 12.8841C7.66969 12.8841 8.55973 11.9941 8.55973 10.9C8.55979 10.866 8.55979 4.66068 8.55979 4.66068ZM1.9841 13.2668C1.53621 13.2668 1.17188 12.9024 1.17188 12.4545C1.17188 12.0066 1.53627 11.6423 1.9841 11.6423C2.43193 11.6423 2.79633 12.0067 2.79633 12.4545C2.79639 12.9024 2.43199 13.2668 1.9841 13.2668ZM6.57568 11.7123C6.12779 11.7123 5.76346 11.3479 5.76346 10.9C5.76346 10.4521 6.12785 10.0878 6.57568 10.0878C7.02357 10.0878 7.38791 10.4522 7.38791 10.9C7.38791 11.3479 7.02352 11.7123 6.57568 11.7123Z" fill="#D81325"/>
<path d="M27.3126 20.6154L25.3338 19.9455C25.1549 19.8849 24.9579 19.9143 24.8045 20.0244C24.651 20.1344 24.56 20.3117 24.56 20.5005V24.9297C24.312 24.818 24.037 24.7558 23.7478 24.7558C22.6537 24.7558 21.7637 25.6458 21.7637 26.7399C21.7637 27.8339 22.6537 28.724 23.7478 28.724C24.8418 28.724 25.7319 27.8339 25.7319 26.7399C25.7319 26.7058 25.7319 26.602 25.7319 26.5836V21.3175L26.9369 21.7254C27.2434 21.8293 27.576 21.6648 27.6797 21.3583C27.7835 21.0518 27.6191 20.7192 27.3126 20.6154ZM23.7478 27.5521C23.2999 27.5521 22.9355 27.1877 22.9355 26.7399C22.9355 26.292 23.2999 25.9276 23.7478 25.9276C24.1957 25.9276 24.56 26.292 24.56 26.7399C24.56 27.1878 24.1957 27.5521 23.7478 27.5521Z" fill="#D81325"/>
<path d="M16.017 6.3047C15.9016 6.3047 15.7863 6.27072 15.6868 6.20281C15.2734 5.9208 13.1865 4.47599 12.7016 3.72265C12.4904 3.39453 12.2152 2.8738 12.2621 2.14226C12.3402 0.928199 13.3341 -0.0128172 14.5234 0.000132044C15.1919 0.00739767 15.7235 0.36271 16.0755 0.694937C16.436 0.375132 16.9704 0.0335305 17.6082 0.0335305C17.6146 0.0335305 17.621 0.0335305 17.6274 0.0335891C18.8174 0.0464211 19.7901 1.00853 19.842 2.22388C19.8733 2.9546 19.5871 3.46988 19.3691 3.7939C18.8649 4.54273 16.7546 5.93767 16.3366 6.20972C16.2394 6.27312 16.1281 6.3047 16.017 6.3047ZM14.5001 1.17195C13.947 1.17195 13.4688 1.63865 13.4315 2.2175C13.4119 2.52371 13.4859 2.77607 13.6869 3.08843C13.9211 3.45236 15.1007 4.36085 16.0245 5.01107C16.9586 4.38283 18.1533 3.50152 18.3968 3.1397C18.6048 2.83068 18.6843 2.57984 18.6712 2.27404C18.6463 1.69085 18.1724 1.2115 17.6148 1.20552C17.1478 1.20148 16.6431 1.76369 16.5343 1.9148C16.4213 2.07183 16.239 2.16242 16.0445 2.1582C15.851 2.15351 15.6724 2.05355 15.5672 1.89119C15.4369 1.6946 14.99 1.17722 14.5107 1.17201C14.5072 1.17195 14.5036 1.17195 14.5001 1.17195Z" fill="#D81325"/>
</g>
<defs>
<clipPath id="clip0">
<rect width="30" height="30" fill="white"/>
</clipPath>
</defs>
</svg>
