<svg width="100" height="100" viewBox="0 0 100 100" fill="none" xmlns="http://www.w3.org/2000/svg">
<path d="M56.25 25H43.75C42.5984 25 41.6666 25.9318 41.6666 27.0834V72.9168C41.6666 74.0684 42.5984 75.0002 43.75 75.0002H56.25C57.4016 75.0002 58.3334 74.0684 58.3334 72.9168V27.0834C58.3334 25.9318 57.4016 25 56.25 25Z" fill="black"/>
<path d="M77.0834 62.5H64.5834C63.4318 62.5 62.5 63.4318 62.5 64.5834V72.9168C62.5 74.0684 63.4318 75.0002 64.5834 75.0002H77.0834C78.235 75.0002 79.1668 74.0684 79.1668 72.9168V64.5834C79.1666 63.4318 78.235 62.5 77.0834 62.5Z" fill="black"/>
<path d="M97.9166 62.5H85.4166C84.265 62.5 83.3332 63.4318 83.3332 64.5834V72.9168C83.3332 74.0684 84.265 75.0002 85.4166 75.0002H97.9166C99.0682 75.0002 100 74.0684 100 72.9168V64.5834C100 63.4318 99.0682 62.5 97.9166 62.5Z" fill="black"/>
<path d="M35.4166 37.5H22.9166C21.765 37.5 20.8332 38.4318 20.8332 39.5834V72.9168C20.8332 74.0684 21.765 75.0002 22.9166 75.0002H35.4166C36.5682 75.0002 37.5 74.0684 37.5 72.9168V39.5834C37.5 38.4318 36.5682 37.5 35.4166 37.5Z" fill="black"/>
<path d="M14.5834 50H2.0834C0.931836 50 0 50.9318 0 52.0834V72.9168C0 74.0682 0.931836 75 2.0834 75H14.5834C15.735 75 16.6668 74.0682 16.6668 72.9166V52.0834C16.6666 50.9318 15.735 50 14.5834 50Z" fill="black"/>
</svg>
