<svg width="30" height="30" viewBox="0 0 30 30" fill="none" xmlns="http://www.w3.org/2000/svg">
<path d="M28.2422 19.488V2.63672C28.2422 1.18283 27.0594 0 25.6055 0H6.21094C4.75705 0 3.57422 1.18283 3.57422 2.63672V3.57422H2.63672C1.18283 3.57422 0 4.75705 0 6.21094C0 7.66482 1.18283 8.84766 2.63672 8.84766H3.57422V12.3633H2.63672C1.18283 12.3633 0 13.5461 0 15C0 16.4539 1.18283 17.6367 2.63672 17.6367H3.57422V21.1523H2.63672C1.18283 21.1523 0 22.3352 0 23.7891C0 25.2429 1.18283 26.4258 2.63672 26.4258H3.57422V27.3047C3.57422 28.0052 3.84357 28.6727 4.33266 29.1843C4.83551 29.7103 5.5026 30 6.21094 30H23.8477C27.2401 30 30 27.2138 30 23.7891C30 22.1166 29.3289 20.5982 28.2422 19.488ZM2.63672 7.08984C2.15209 7.08984 1.75781 6.69557 1.75781 6.21094C1.75781 5.72631 2.15209 5.33203 2.63672 5.33203H4.45312C4.93775 5.33203 5.33203 5.72631 5.33203 6.21094C5.33203 6.69557 4.93775 7.08984 4.45312 7.08984H2.63672ZM2.63672 15.8789C2.15209 15.8789 1.75781 15.4846 1.75781 15C1.75781 14.5154 2.15209 14.1211 2.63672 14.1211H4.45312C4.93775 14.1211 5.33203 14.5154 5.33203 15C5.33203 15.4846 4.93775 15.8789 4.45312 15.8789H2.63672ZM4.45312 24.668H2.63672C2.15209 24.668 1.75781 24.2737 1.75781 23.7891C1.75781 23.3044 2.15209 22.9102 2.63672 22.9102H4.45312C4.93775 22.9102 5.33203 23.3044 5.33203 23.7891C5.33203 24.2737 4.93775 24.668 4.45312 24.668ZM6.21094 28.2422C5.74277 28.2422 5.33203 27.8041 5.33203 27.3047V26.2746C6.35502 25.9118 7.08984 24.9349 7.08984 23.7891C7.08984 22.6433 6.35502 21.6663 5.33203 21.3035V17.4855C6.35502 17.1227 7.08984 16.1458 7.08984 15C7.08984 13.8542 6.35502 12.8773 5.33203 12.5145V8.69648C6.35502 8.33367 7.08984 7.35674 7.08984 6.21094C7.08984 5.06514 6.35502 4.0882 5.33203 3.72539V2.63672C5.33203 2.15209 5.72631 1.75781 6.21094 1.75781H25.6055C26.0901 1.75781 26.4844 2.15209 26.4844 2.63672V18.2312C25.6848 17.8503 24.7907 17.6367 23.8477 17.6367C20.4553 17.6367 17.6953 20.3967 17.6953 23.7891C17.6953 25.534 18.4121 27.1129 19.5636 28.2422H6.21094ZM23.8477 28.2422C21.4245 28.2422 19.4531 26.2446 19.4531 23.7891C19.4531 21.3659 21.4245 19.3945 23.8477 19.3945C26.2708 19.3945 28.2422 21.3659 28.2422 23.7891C28.2422 26.2446 26.2708 28.2422 23.8477 28.2422Z" fill="white"/>
<path d="M23.8477 7.08984H18.5742C18.0888 7.08984 17.6953 7.48336 17.6953 7.96875C17.6953 8.45414 18.0888 8.84766 18.5742 8.84766H23.8477C24.333 8.84766 24.7266 8.45414 24.7266 7.96875C24.7266 7.48336 24.333 7.08984 23.8477 7.08984Z" fill="white"/>
<path d="M23.8477 14.1211H18.5742C18.0888 14.1211 17.6953 14.5146 17.6953 15C17.6953 15.4854 18.0888 15.8789 18.5742 15.8789H23.8477C24.333 15.8789 24.7266 15.4854 24.7266 15C24.7266 14.5146 24.333 14.1211 23.8477 14.1211Z" fill="white"/>
<path d="M25.6055 22.9102H24.7266V22.0312C24.7266 21.5459 24.333 21.1523 23.8477 21.1523C23.3623 21.1523 22.9688 21.5459 22.9688 22.0312V23.7891C22.9688 24.2745 23.3623 24.668 23.8477 24.668H25.6055C26.0909 24.668 26.4844 24.2745 26.4844 23.7891C26.4844 23.3037 26.0909 22.9102 25.6055 22.9102Z" fill="white"/>
<path d="M15.6215 5.58946C15.2783 5.24621 14.7218 5.24621 14.3786 5.58951L11.4844 8.48364L10.101 7.10018C9.75779 6.75694 9.20126 6.75694 8.85802 7.10018C8.51478 7.44342 8.51478 7.99989 8.85802 8.34313L10.863 10.3481C11.0345 10.5197 11.2595 10.6055 11.4844 10.6055C11.7094 10.6055 11.9343 10.5197 12.1059 10.348L15.6215 6.83241C15.9647 6.48916 15.9647 5.9327 15.6215 5.58946Z" fill="white"/>
<path d="M15.6215 12.6208C15.2783 12.2776 14.7218 12.2776 14.3786 12.6209L11.4844 15.515L10.101 14.1316C9.75779 13.7883 9.20126 13.7883 8.85802 14.1316C8.51478 14.4748 8.51478 15.0313 8.85802 15.3745L10.863 17.3795C11.0345 17.5511 11.2595 17.6369 11.4844 17.6369C11.7094 17.6369 11.9343 17.5511 12.1059 17.3794L15.6215 13.8638C15.9647 13.5205 15.9647 12.9641 15.6215 12.6208Z" fill="white"/>
<path d="M15.6215 19.6521C15.2783 19.3088 14.7218 19.3088 14.3786 19.6521L11.4844 22.5463L10.101 21.1628C9.75779 20.8196 9.20126 20.8196 8.85802 21.1628C8.51478 21.506 8.51478 22.0625 8.85802 22.4057L10.863 24.4107C11.0345 24.5823 11.2595 24.6681 11.4844 24.6681C11.7094 24.6681 11.9343 24.5823 12.1059 24.4107L15.6215 20.895C15.9647 20.5518 15.9647 19.9953 15.6215 19.6521Z" fill="white"/>
</svg>
