<svg width="30" height="30" viewBox="0 0 30 30" fill="none" xmlns="http://www.w3.org/2000/svg">
<path d="M8.37541 12.2089L25.0538 0.736892C25.7391 0.26447 26.4519 0.0151367 27.0621 0.0151367C28.4018 0.0151367 29.29 1.13884 29.29 2.94712V27.0686C29.29 27.9519 29.0332 28.69 28.6524 29.2037C28.2657 29.7245 27.6609 30.0001 27.0074 30.0001C26.3974 30.0001 25.7129 29.7503 25.0278 29.2786L8.36448 17.8065C7.29327 17.0683 6.7059 16.0746 6.70614 15.0072C6.70614 13.9404 7.30274 12.9467 8.37541 12.2089Z" fill="white"/>
<path d="M2.26917 29.9925L2.28697 29.9922C2.28988 29.9922 2.29274 29.9925 2.29565 29.9925H2.26917Z" fill="white"/>
<path d="M2.31824 0L3.00768 0.00194412C3.91048 0.00194412 4.69202 0.737795 4.69202 1.64181V28.3351C4.69202 29.2401 3.92336 29.983 3.01934 29.983L2.28695 29.9922C1.38749 29.9874 0.709969 29.2381 0.709969 28.3366V1.64011C0.709969 0.736093 1.41471 0 2.31824 0Z" fill="white"/>
</svg>
