<svg width="20" height="20" viewBox="0 0 20 20" fill="none" xmlns="http://www.w3.org/2000/svg">
<g clip-path="url(#clip0)">
<path d="M16.6132 2.00617H13.0407V0.652187C13.0407 0.292031 12.7487 0 12.3885 0H7.61152C7.25136 0 6.95933 0.291992 6.95933 0.652187V2.00617H3.38687C3.02671 2.00617 2.73468 2.29816 2.73468 2.65836V4.66449C2.73468 5.02465 3.02667 5.31668 3.38687 5.31668H3.58499L4.18109 19.3755C4.19585 19.7246 4.48323 20 4.83265 20H15.1673C15.5168 20 15.8041 19.7246 15.8189 19.3755L16.415 5.31664H16.6131C16.9733 5.31664 17.2653 5.02465 17.2653 4.66445V2.65836C17.2654 2.29813 16.9734 2.00617 16.6132 2.00617ZM8.2637 1.30434H11.7364V2.00617H8.2637V1.30434ZM14.5423 18.6957H5.45777L4.8905 5.31668H15.1095L14.5423 18.6957ZM15.961 4.0123C15.3684 4.0123 4.39406 4.0123 4.03905 4.0123V3.31051H15.961V4.0123Z" fill="white"/>
<path d="M7.37637 7.31641C7.01621 7.31641 6.72418 7.6084 6.72418 7.96859V16.0434C6.72418 16.4035 7.01617 16.6955 7.37637 16.6955C7.73653 16.6955 8.02856 16.4036 8.02856 16.0434V7.96859C8.02852 7.6084 7.73653 7.31641 7.37637 7.31641Z" fill="white"/>
<path d="M9.99993 7.31641C9.63978 7.31641 9.34775 7.6084 9.34775 7.96859V16.0434C9.34775 16.4035 9.6397 16.6955 9.99993 16.6955C10.3601 16.6955 10.6521 16.4036 10.6521 16.0434V7.96859C10.6521 7.6084 10.3601 7.31641 9.99993 7.31641Z" fill="white"/>
<path d="M12.6235 7.31641C12.2633 7.31641 11.9713 7.6084 11.9713 7.96859V16.0434C11.9713 16.4035 12.2633 16.6955 12.6235 16.6955C12.9837 16.6955 13.2757 16.4036 13.2757 16.0434V7.96859C13.2757 7.6084 12.9837 7.31641 12.6235 7.31641Z" fill="white"/>
</g>
<defs>
<clipPath id="clip0">
<rect width="20" height="20" fill="white"/>
</clipPath>
</defs>
</svg>
