<svg width="25" height="25" viewBox="0 0 25 25" fill="none" xmlns="http://www.w3.org/2000/svg">
<g clip-path="url(#clip0)">
<path d="M24.6945 23.2225L17.5852 16.1132C18.9623 14.4122 19.7915 12.2507 19.7915 9.89661C19.7915 4.44041 15.3519 0.000854492 9.8957 0.000854492C4.43951 0.000854492 0 4.44036 0 9.89656C0 15.3528 4.43956 19.7923 9.89575 19.7923C12.2499 19.7923 14.4113 18.9632 16.1123 17.5861L23.2216 24.6954C23.4248 24.8985 23.6914 25.0006 23.9581 25.0006C24.2248 25.0006 24.4915 24.8985 24.6946 24.6954C25.1019 24.2881 25.1019 23.6298 24.6945 23.2225ZM9.89575 17.709C5.58745 17.709 2.08333 14.2049 2.08333 9.89656C2.08333 5.58825 5.58745 2.08414 9.89575 2.08414C14.2041 2.08414 17.7082 5.58825 17.7082 9.89656C17.7082 14.2049 14.204 17.709 9.89575 17.709Z" fill="white"/>
</g>
<defs>
<clipPath id="clip0">
<rect width="25" height="25" fill="white"/>
</clipPath>
</defs>
</svg>
