<svg width="20" height="20" viewBox="0 0 20 20" fill="none" xmlns="http://www.w3.org/2000/svg">
<path d="M20 15.1434L15.8362 10.9775V14.2859H15.4286C13.5236 14.2859 12.2956 13.1628 11.1825 11.5935C10.8757 12.0945 10.5521 12.6154 10.2016 13.1321C11.4644 14.7357 13.0563 16.0002 15.4285 16.0002H15.8361V19.3082L20 15.1434Z" fill="white"/>
<path d="M20 4.85771L15.8362 0.691895V4.00029H15.4286C11.805 4.00029 10.0021 6.95045 8.41148 9.55334C6.85953 12.0928 5.5193 14.286 2.85715 14.286H0V16.0003H2.85715C6.4807 16.0003 8.28359 13.0501 9.87422 10.4472C11.4262 7.90771 12.7664 5.71451 15.4286 5.71451H15.8362V9.02256L20 4.85771Z" fill="white"/>
<path d="M2.85715 4H0V5.7143H2.85715C4.76207 5.7143 5.99008 6.83742 7.10316 8.40668C7.41004 7.9057 7.73363 7.38484 8.08414 6.86812C6.82125 5.26445 5.22937 4 2.85715 4Z" fill="white"/>
</svg>
