<svg width="30" height="30" viewBox="0 0 30 30" fill="none" xmlns="http://www.w3.org/2000/svg">
<path d="M7.8125 5C7.8125 3.10153 9.35153 1.5625 11.25 1.5625H18.75C20.6485 1.5625 22.1875 3.10153 22.1875 5V5.3125H17.5C16.9823 5.3125 16.5625 5.73224 16.5625 6.25C16.5625 6.76776 16.9823 7.1875 17.5 7.1875H22.1875V10.3125H17.5C16.9823 10.3125 16.5625 10.7322 16.5625 11.25C16.5625 11.7678 16.9823 12.1875 17.5 12.1875H22.1875V15.3125H17.5C16.9823 15.3125 16.5625 15.7323 16.5625 16.25C16.5625 16.7677 16.9823 17.1875 17.5 17.1875H22.1875V17.5C22.1875 19.3985 20.6485 20.9375 18.75 20.9375H15.9375V26.875H14.0625V20.9375H11.25C9.35153 20.9375 7.8125 19.3985 7.8125 17.5V17.1875H12.5C13.0177 17.1875 13.4375 16.7677 13.4375 16.25C13.4375 15.7323 13.0177 15.3125 12.5 15.3125H7.8125V12.1875H12.5C13.0177 12.1875 13.4375 11.7678 13.4375 11.25C13.4375 10.7322 13.0177 10.3125 12.5 10.3125H7.8125V7.1875H12.5C13.0177 7.1875 13.4375 6.76776 13.4375 6.25C13.4375 5.73224 13.0177 5.3125 12.5 5.3125H7.8125V5Z" fill="white"/>
</svg>
