<svg width="35" height="35" viewBox="0 0 35 35" fill="none" xmlns="http://www.w3.org/2000/svg">
<path d="M10.7302 18.0495C11.0133 18.0495 11.2429 17.8201 11.2429 17.5368C11.2429 14.0908 14.0465 11.2872 17.4925 11.2872C17.7755 11.2872 18.0052 11.0579 18.0052 10.7745C18.0052 10.4915 17.7755 10.2618 17.4925 10.2618C13.4812 10.2618 10.2175 13.5255 10.2175 17.5368C10.2175 17.8201 10.4469 18.0495 10.7302 18.0495Z" fill="white"/>
<path d="M18.0052 7.89551C18.0052 7.61246 17.7759 7.38281 17.4925 7.38281C11.8937 7.38281 7.3385 11.9381 7.3385 17.5368C7.3385 17.8202 7.56815 18.0495 7.8512 18.0495C8.13425 18.0495 8.36389 17.8202 8.36389 17.5368C8.36389 12.5034 12.459 8.4082 17.4925 8.4082C17.7759 8.4082 18.0052 8.17856 18.0052 7.89551Z" fill="white"/>
<path d="M32.3233 0H2.6767C1.20083 0 0 1.20083 0 2.6767V32.3233C0 33.7992 1.20083 35 2.6767 35H32.3233C33.7992 35 35 33.7992 35 32.3233V2.6767C35 1.20083 33.7992 0 32.3233 0ZM33.9746 32.3233C33.9746 33.2339 33.2339 33.9746 32.3233 33.9746H2.6767C1.76613 33.9746 1.02539 33.2339 1.02539 32.3233V2.6767C1.02539 1.76613 1.76613 1.02539 2.6767 1.02539H32.3233C33.2339 1.02539 33.9746 1.76613 33.9746 2.6767V32.3233Z" fill="white"/>
<path d="M17.5 21.7583C19.8488 21.7583 21.7596 19.8475 21.7596 17.4987C21.7596 15.1499 19.8488 13.2388 17.5 13.2388C15.1512 13.2388 13.2404 15.1499 13.2404 17.4987C13.2404 19.8475 15.1512 21.7583 17.5 21.7583ZM17.5 14.2642C19.2835 14.2642 20.7343 15.7152 20.7343 17.4987C20.7343 19.2822 19.2835 20.7329 17.5 20.7329C15.7165 20.7329 14.2657 19.2822 14.2657 17.4987C14.2657 15.7152 15.7165 14.2642 17.5 14.2642Z" fill="white"/>
<path d="M17.5 19.1721C18.4229 19.1721 19.1735 18.4212 19.1735 17.4987C19.1735 16.5758 18.4229 15.8252 17.5 15.8252C16.5774 15.8252 15.8265 16.5758 15.8265 17.4987C15.8265 18.4212 16.5774 19.1721 17.5 19.1721ZM17.5 16.8506C17.8573 16.8506 18.1481 17.1414 18.1481 17.4987C18.1481 17.8559 17.8573 18.1467 17.5 18.1467C17.1427 18.1467 16.8519 17.8559 16.8519 17.4987C16.8519 17.1414 17.1427 16.8506 17.5 16.8506Z" fill="white"/>
<path d="M29.9072 3.14819C28.5379 3.14819 27.4236 4.26224 27.4236 5.63183C27.4236 6.6412 28.029 7.51198 28.8957 7.89997L26.7349 17.3242C26.5194 18.2815 26.1363 19.1742 25.5942 19.9841C25.0487 19.7894 24.4147 19.9072 23.9744 20.3395L22.3386 21.9465C21.7247 22.5494 21.7159 23.5396 22.3188 24.1537C22.6147 24.4547 23.0099 24.6205 23.4323 24.6205C23.8438 24.6205 24.2321 24.4616 24.5258 24.1732L26.1616 22.5663C26.6914 22.0461 26.7707 21.2373 26.3947 20.6308C27.0345 19.696 27.4848 18.6615 27.735 17.5515L29.8982 8.11546H29.9072C31.2766 8.11546 32.3906 7.00142 32.3906 5.63183C32.3909 4.26224 31.2766 3.14819 29.9072 3.14819ZM25.4431 21.8349L23.8072 23.4418C23.7066 23.5406 23.5733 23.5951 23.4321 23.5951C23.2873 23.5951 23.1517 23.5382 23.0502 23.4349C22.8435 23.2245 22.8465 22.8848 23.0572 22.6779L24.6927 21.0712C24.7968 20.9689 24.9325 20.9179 25.0681 20.9179C25.2067 20.9179 25.3453 20.9713 25.45 21.0778C25.6567 21.2885 25.6537 21.6279 25.4431 21.8349ZM29.9072 7.08981C29.8869 7.08981 29.8669 7.08954 29.8469 7.08874C29.7022 7.02492 29.5152 6.98433 29.3614 6.98379C28.8268 6.76723 28.4493 6.24279 28.4493 5.63183C28.4493 4.82754 29.1032 4.17358 29.9072 4.17358C30.7113 4.17358 31.3655 4.82754 31.3655 5.63183C31.3655 6.43585 30.7113 7.08981 29.9072 7.08981Z" fill="white"/>
<path d="M4.25477 28.8904C3.2211 28.8904 2.38049 29.7313 2.38049 30.7649C2.38049 31.7983 3.2211 32.6392 4.25477 32.6392C5.28817 32.6392 6.12904 31.7983 6.12904 30.7649C6.12904 29.7313 5.28817 28.8904 4.25477 28.8904ZM4.25477 31.6138C3.78667 31.6138 3.40588 31.233 3.40588 30.7649C3.40588 30.2966 3.78667 29.9158 4.25477 29.9158C4.72287 29.9158 5.10365 30.2966 5.10365 30.7649C5.10365 31.233 4.72287 31.6138 4.25477 31.6138Z" fill="white"/>
<path d="M8.83057 28.8904C7.79717 28.8904 6.9563 29.7313 6.9563 30.7649C6.9563 31.7983 7.79717 32.6392 8.83057 32.6392C9.86424 32.6392 10.7051 31.7983 10.7051 30.7649C10.7051 29.7313 9.86424 28.8904 8.83057 28.8904ZM8.83057 31.6138C8.36247 31.6138 7.98169 31.233 7.98169 30.7649C7.98169 30.2966 8.36247 29.9158 8.83057 29.9158C9.29868 29.9158 9.67973 30.2966 9.67973 30.7649C9.67973 31.233 9.29868 31.6138 8.83057 31.6138Z" fill="white"/>
<path d="M29.2935 13.1992C29.0238 13.2851 28.8748 13.5735 28.9608 13.8435C29.336 15.0208 29.5261 16.2505 29.5261 17.4986C29.5261 24.1297 24.1313 29.5248 17.4999 29.5248C10.8688 29.5248 5.47375 24.1297 5.47375 17.4986C5.47375 10.8672 10.8685 5.47241 17.4999 5.47241C19.4265 5.47241 21.2666 5.91408 22.9695 6.78513C24.5941 7.61612 26.0328 8.8295 27.1303 10.2942C27.3002 10.5206 27.6214 10.5668 27.8481 10.397C28.0745 10.2271 28.1207 9.90562 27.9509 9.67918C26.7602 8.09036 25.1994 6.77391 23.4365 5.87215C21.5879 4.92634 19.5905 4.44702 17.4999 4.44702C10.3032 4.44702 4.44836 10.3019 4.44836 17.4986C4.44836 24.6953 10.3032 30.5502 17.4999 30.5502C24.6966 30.5502 30.5515 24.6953 30.5515 17.4986C30.5515 16.1448 30.3451 14.8101 29.9376 13.5321C29.8519 13.2624 29.5632 13.1134 29.2935 13.1992Z" fill="white"/>
</svg>
