<svg width="30" height="30" viewBox="0 0 30 30" fill="none" xmlns="http://www.w3.org/2000/svg">
<path d="M21.2543 1.39429C19.8555 1.39429 18.5186 1.71495 17.2808 2.34742C16.4382 2.77787 15.6642 3.34979 15 4.02835C14.3358 3.34979 13.5618 2.77787 12.7192 2.34742C11.4813 1.71495 10.1445 1.39429 8.74565 1.39429C3.92332 1.39429 0 5.31761 0 10.14C0 13.5556 1.8039 17.1833 5.36153 20.9223C8.33196 24.0442 11.9687 26.6466 14.4964 28.28L15 28.6055L15.5036 28.28C18.0313 26.6467 21.668 24.0442 24.6385 20.9223C28.1961 17.1833 30 13.5556 30 10.14C30 5.31761 26.0767 1.39429 21.2543 1.39429Z" fill="white"/>
</svg>
