<svg width="35" height="35" viewBox="0 0 35 35" fill="none" xmlns="http://www.w3.org/2000/svg">
<path d="M11.9803 9.04287L11.1658 10.3723V10.3917H12.5317V9.04294C12.5317 8.67686 12.5522 8.30272 12.5797 7.90912H12.5431C12.3464 8.30264 12.1862 8.65849 11.9803 9.04287Z" fill="#D81325"/>
<path d="M18.5587 8.55557C18.5587 7.97432 18.1559 7.62769 17.4443 7.62769C17.1537 7.62769 16.9569 7.65629 16.854 7.68365V9.54849C16.9752 9.57608 17.1262 9.58515 17.3321 9.58515C18.0895 9.58522 18.5587 9.20193 18.5587 8.55557Z" fill="#D81325"/>
<path d="M25.9278 0H11.8704C9.81677 0 8.14524 1.67276 8.14524 3.72518V4.4151H1.72578C0.896338 4.4151 0.224854 5.08658 0.224854 5.9161V13.5597C0.224854 14.3893 0.896338 15.0608 1.72578 15.0608H8.14532V31.2748C8.14532 33.3296 9.81684 35 11.8705 35H31.0512C33.1036 35 34.7751 33.3296 34.7751 31.2748V8.81633L25.9278 0ZM14.6117 10.3917V11.4593H13.8817V12.911H12.5317V11.4593H9.8339V10.5313L12.1381 6.82228H13.8817V10.3917H14.6117ZM7.74264 12.911L7.64878 10.4948C7.61902 9.73507 7.59165 8.81757 7.59165 7.89999H7.56414C7.36741 8.70548 7.10433 9.60462 6.86158 10.3449L6.09283 12.8081H4.97838L4.30341 10.3632C4.09747 9.62298 3.88245 8.7237 3.73254 7.89999H3.71316C3.67657 8.75223 3.64797 9.72592 3.601 10.5131L3.48885 12.911H2.16867L2.57135 6.59797H4.47277L5.09054 8.70541C5.28741 9.43526 5.48413 10.2224 5.6238 10.9626H5.65342C5.82975 10.2316 6.04702 9.39874 6.25304 8.69619L6.92576 6.59797H8.79059L9.13846 12.911H7.74264ZM31.0511 32.7187H11.8704C11.0753 32.7187 10.4278 32.0711 10.4278 31.2748V15.0608H20.5712C21.4006 15.0608 22.0723 14.3893 22.0723 13.5597V5.9161C22.0723 5.08658 21.4006 4.4151 20.5712 4.4151H10.4278V3.72518C10.4278 2.93116 11.0752 2.28363 11.8704 2.28363L25.0743 2.26998V7.15054C25.0743 8.57612 26.231 9.73398 27.6577 9.73398L32.4389 9.72026L32.4926 31.2748C32.4926 32.0711 31.8462 32.7187 31.0511 32.7187ZM15.44 12.911V6.68159C15.8794 6.60726 16.4994 6.55107 17.3689 6.55107C18.2498 6.55107 18.8769 6.71927 19.3002 7.05683C19.703 7.37478 19.9729 7.89999 19.9729 8.51776C19.9729 9.13567 19.7669 9.66073 19.394 10.0165C18.9066 10.4752 18.1836 10.6812 17.3415 10.6812C17.1539 10.6812 16.9844 10.6721 16.8541 10.6538V12.911H15.44Z" fill="#D81325"/>
<path d="M27.3362 15.4979C27.0993 15.4006 26.8294 15.4533 26.6486 15.634L25.016 17.2666C22.3972 15.3674 18.7063 15.5894 16.3484 17.9484L15.6803 18.6167C15.1666 19.1292 15.1666 19.9621 15.6803 20.4758C15.9365 20.732 16.2729 20.8602 16.6093 20.8602C16.9456 20.8602 17.2821 20.732 17.5382 20.4758L18.2065 19.8077C19.5371 18.477 21.5631 18.2653 23.1203 19.1623L21.6548 20.6278C21.474 20.8086 21.4203 21.081 21.5173 21.3166C21.6159 21.5524 21.8446 21.7067 22.1008 21.7067H27.0948C27.4438 21.7067 27.7252 21.4231 27.7252 21.0753V16.0814C27.7252 15.8263 27.5729 15.5952 27.3362 15.4979Z" fill="#D81325"/>
<path d="M25.382 26.2215L24.714 26.8895C23.9462 27.6583 22.9222 28.0828 21.8342 28.0828C21.1078 28.0828 20.4121 27.8895 19.8001 27.5348L21.2656 26.0669C21.4476 25.8862 21.5013 25.615 21.4029 25.3792C21.3046 25.1436 21.0757 24.9904 20.8195 24.9904H15.8256C15.4765 24.9904 15.1951 25.2718 15.1951 25.6208V30.6148C15.1951 30.871 15.3485 31.0998 15.5841 31.1982C15.8209 31.2966 16.092 31.2416 16.2729 31.0608L17.9031 29.4305C19.0403 30.2578 20.4007 30.7108 21.8341 30.7108C23.6247 30.7108 25.3077 30.014 26.5729 28.7475L27.241 28.0805C27.7548 27.5656 27.7548 26.734 27.241 26.2215C26.7275 25.7077 25.8958 25.7077 25.382 26.2215Z" fill="#D81325"/>
</svg>
