<svg width="25" height="25" viewBox="0 0 25 25" fill="none" xmlns="http://www.w3.org/2000/svg">
<g clip-path="url(#clip0)">
<path d="M22.9825 5.69104C22.6735 5.21638 22.038 5.08195 21.5629 5.39041L19.7532 6.56606C18.2954 7.62537 17.6706 9.44785 18.08 11.1641C18.9207 14.6877 16.3086 18.0933 12.7266 18.2308C9.45611 18.3563 6.76531 15.7422 6.76531 12.4996C6.76531 9.33195 9.33317 6.76409 12.5008 6.76409C12.8032 6.76409 13.0366 6.78882 13.0277 6.78804C13.3048 6.81278 13.5435 6.59446 13.5435 6.31622V1.02803C13.5435 0.461417 13.0799 0.00200855 12.5133 0.00147083C9.17039 -0.00175549 6.02722 1.29835 3.66364 3.66237C-1.22042 8.54541 -1.22233 16.4519 3.66364 21.3368C8.54668 26.2209 16.4531 26.2227 21.338 21.3368C25.6351 17.0407 26.1068 10.4892 22.9825 5.69104Z" fill="white"/>
<path d="M20.7003 3.0664C19.3284 1.87301 17.6844 0.979266 15.9462 0.481728C15.4012 0.325886 14.8328 0.641137 14.6768 1.18619C14.5713 1.55448 14.6029 0.810079 14.6029 8.34364H12.5009C10.2098 8.34364 8.34583 10.2076 8.34583 12.4988C8.34583 14.7899 10.2098 16.6539 12.5009 16.6539C14.7921 16.6539 16.6561 14.7899 16.6561 12.4988C16.6561 11.9457 16.6561 3.46774 16.6561 2.91472C17.6322 3.33991 18.5483 3.91571 19.3529 4.61548C19.5473 4.78462 19.7872 4.86747 20.0261 4.86747C20.9678 4.86752 21.4193 3.69177 20.7003 3.0664ZM14.5867 12.4988C14.5867 13.6507 13.6528 14.5844 12.5009 14.5844C11.349 14.5844 10.4152 13.6506 10.4152 12.4988C10.4152 11.3469 11.349 10.413 12.5009 10.413H14.5867V12.4988Z" fill="white"/>
</g>
<defs>
<clipPath id="clip0">
<rect width="25" height="25" fill="white"/>
</clipPath>
</defs>
</svg>
