<svg width="30" height="30" viewBox="0 0 30 30" fill="none" xmlns="http://www.w3.org/2000/svg">
<path d="M21.6246 12.2087L4.9462 0.736648C4.2609 0.264226 3.54814 0.0148926 2.93793 0.0148926C1.59818 0.0148926 0.709961 1.1386 0.709961 2.94687V27.0683C0.709961 27.9517 0.966828 28.6897 1.34763 29.2035C1.73427 29.7242 2.33914 29.9998 2.9926 29.9998C3.60257 29.9998 4.28715 29.75 4.97221 29.2783L21.6355 17.8063C22.7067 17.068 23.2941 16.0743 23.2939 15.007C23.2939 13.9402 22.6973 12.9465 21.6246 12.2087Z" fill="white"/>
<path d="M27.7308 29.9925L27.713 29.9922C27.7101 29.9922 27.7073 29.9925 27.7043 29.9925H27.7308Z" fill="white"/>
<path d="M27.6818 0L26.9923 0.00194412C26.0895 0.00194412 25.308 0.737795 25.308 1.64181V28.3351C25.308 29.2401 26.0766 29.983 26.9807 29.983L27.713 29.9922C28.6125 29.9874 29.29 29.2381 29.29 28.3366V1.64011C29.29 0.736093 28.5853 0 27.6818 0Z" fill="white"/>
</svg>
