<svg width="25" height="25" viewBox="0 0 25 25" fill="none" xmlns="http://www.w3.org/2000/svg">
<path d="M17.2879 1.54418C17.0352 1.48667 16.7702 1.55028 16.5711 1.71619C16.3732 1.87819 16.2576 2.11987 16.2557 2.3756V16.4238C15.4091 15.8537 14.4094 15.5538 13.3888 15.5637C10.8372 15.5637 8.77295 17.3412 8.77295 19.5201C8.77295 21.699 10.8372 23.4765 13.3888 23.4765C15.9404 23.4765 17.9759 21.699 17.9759 19.5201V3.46505L24.6273 4.9272L25 3.26436L17.2879 1.54418Z" fill="white"/>
<path d="M12.9301 3.69446H3.8418V5.41464H12.9301V3.69446Z" fill="white"/>
<path d="M12.93 7.88025H0V9.60043H12.93V7.88025Z" fill="white"/>
<path d="M12.9301 12.066H3.8418V13.7862H12.9301V12.066Z" fill="white"/>
</svg>
