<svg width="25" height="17" viewBox="0 0 25 17" fill="none" xmlns="http://www.w3.org/2000/svg">
<path d="M23.3207 2.98655V2.05168H21.1692V1.08782H18.6676V0.354614H6.33232V1.08782H3.83076V2.05168H1.6793V2.98655H0V10.058H1.6793V10.9929H3.83081V11.9568H6.33237V12.69H18.6677V11.9568H21.1692V10.9929H23.3208V10.058H25V2.98655H23.3207ZM1.6793 9.32556H0.732422V3.71897H1.6793V9.32556ZM3.83081 10.2604H2.41172V10.058V2.98655V2.78411H3.83081V10.2604ZM6.33232 11.2243H4.56318V10.9928V2.05168V1.82024H6.33232V11.2243ZM7.06475 11.9574V11.9567H7.07144V1.08782H7.06475V1.08704H17.9352V1.08782V11.9568V11.9575H7.06475V11.9574ZM20.4368 2.05168V10.9928V11.2243H18.6677V1.82024H20.4368V2.05168ZM22.5883 2.98655V10.058V10.2604H21.1692V2.78411H22.5883V2.98655ZM24.2676 9.32556H23.3207V3.71897H24.2676V9.32556Z" fill="white"/>
<path d="M15.5129 2.67639V2.67688L15.5139 2.67639H15.5129Z" fill="white"/>
<path d="M15.5129 2.67639L11.1355 4.00461V6.70246C11.0572 6.66594 10.9745 6.63538 10.8875 6.61223C10.5026 6.50974 10.0712 6.54758 9.6725 6.71863C8.81864 7.08484 8.37167 7.96037 8.67621 8.67033C8.88984 9.16843 9.41752 9.45471 10.0083 9.45471C10.2596 9.45466 10.5222 9.4029 10.7769 9.29367C11.4242 9.01609 11.8372 8.44582 11.8668 7.87693H11.8679V7.84719C11.8686 7.82356 11.8686 7.79997 11.8679 7.77639V4.54783L14.7805 3.66399V6.69412C14.7075 6.66125 14.6306 6.63367 14.5502 6.61228C14.1653 6.50979 13.7338 6.54768 13.3352 6.71863C12.9365 6.88967 12.6117 7.17624 12.4207 7.52561C12.2167 7.8987 12.1869 8.31594 12.3389 8.67033C12.5525 9.16843 13.0802 9.45471 13.6709 9.45471C13.9222 9.45466 14.1849 9.4029 14.4396 9.29367C15.1919 8.97097 15.628 8.253 15.5129 7.60119V2.67639ZM11.1355 7.84997C11.1176 8.14089 10.8644 8.45915 10.4883 8.62048C10.0138 8.824 9.49218 8.71462 9.34931 8.38157C9.20649 8.04851 9.48666 7.59524 9.96117 7.39167C10.12 7.32356 10.2887 7.28865 10.4487 7.28865C10.5358 7.28865 10.6203 7.299 10.6991 7.31999C10.8121 7.35002 11.0142 7.43035 11.1001 7.63064V7.63069C11.1215 7.68054 11.1323 7.73327 11.1355 7.78728V7.84997ZM14.7806 7.96325C14.7136 8.22019 14.4787 8.47995 14.151 8.62053C13.6765 8.82405 13.1549 8.71467 13.0121 8.38161C12.9262 8.18132 13.0074 7.97947 13.0634 7.87693C13.1745 7.6737 13.3788 7.49685 13.624 7.39172C13.7828 7.32361 13.9515 7.2887 14.1115 7.2887C14.1985 7.2887 14.283 7.29905 14.3619 7.32004C14.4748 7.35007 14.6769 7.43039 14.7629 7.63069V7.63074C14.7701 7.64758 14.7755 7.66492 14.7806 7.6823V7.96325Z" fill="white"/>
<path d="M18.5525 14.076C17.9714 14.076 17.4795 14.464 17.3214 14.9945H1.95044V15.7269H17.3214C17.4794 16.2573 17.9714 16.6453 18.5525 16.6453C19.1336 16.6453 19.6255 16.2573 19.7836 15.7269H23.0495V14.9945H19.7836C19.6256 14.464 19.1336 14.076 18.5525 14.076ZM18.5525 15.9128C18.2481 15.9128 18.0003 15.6651 18.0003 15.3606C18.0003 15.0562 18.248 14.8084 18.5525 14.8084C18.857 14.8084 19.1047 15.0561 19.1047 15.3606C19.1047 15.6651 18.857 15.9128 18.5525 15.9128Z" fill="white"/>
</svg>
