<svg width="30" height="30" viewBox="0 0 30 30" fill="none" xmlns="http://www.w3.org/2000/svg">
<path d="M19.9481 14.4134L13.7187 9.88511C13.4901 9.7194 13.1866 9.69444 12.936 9.82322C12.6834 9.951 12.5257 10.2106 12.5257 10.4911V19.5447C12.5257 19.8282 12.6834 20.0868 12.936 20.2146C13.0428 20.2685 13.1596 20.2954 13.2774 20.2954C13.4312 20.2954 13.5869 20.2465 13.7187 20.1497L19.9481 15.6254C20.1447 15.4806 20.2595 15.257 20.2595 15.0194C20.2605 14.7778 20.1427 14.5552 19.9481 14.4134Z" fill="white"/>
<path d="M15.0005 0.00195312C6.71458 0.00195312 0 6.71654 0 15.0025C0 23.2854 6.71458 29.998 15.0005 29.998C23.2844 29.998 30 23.2844 30 15.0025C30.001 6.71654 23.2844 0.00195312 15.0005 0.00195312ZM15.0005 27.4952C8.10023 27.4952 2.50574 21.9037 2.50574 15.0025C2.50574 8.10418 8.10023 2.5057 15.0005 2.5057C21.8998 2.5057 27.4933 8.10318 27.4933 15.0025C27.4943 21.9037 21.8998 27.4952 15.0005 27.4952Z" fill="white"/>
</svg>
