<svg width="35" height="35" viewBox="0 0 35 35" fill="none" xmlns="http://www.w3.org/2000/svg">
<g clip-path="url(#clip0)">
<path d="M32.0834 4.08338H30.3334V3.39271C31.137 3.10861 31.619 2.28691 31.4749 1.44687C31.3307 0.60683 30.6024 -0.00720215 29.7501 -0.00720215C28.8977 -0.00720215 28.1694 0.60683 28.0253 1.44687C27.8811 2.28691 28.3632 3.10861 29.1667 3.39271V4.08338H7.58337C5.97334 4.08531 4.66863 5.39002 4.6667 7.00005V16.6834C0.937911 19.0149 -0.808488 23.5248 0.377582 27.7596C1.56365 31.9944 5.39849 34.9411 9.79588 34.9967C14.1933 35.0523 18.1014 32.2035 19.3941 28H32.0834C33.6934 27.9981 34.9981 26.6934 35.0001 25.0834V7.00005C34.9981 5.39002 33.6934 4.08531 32.0834 4.08338ZM29.7501 1.16671C30.0722 1.16671 30.3334 1.42788 30.3334 1.75005C30.3334 2.07221 30.0722 2.33338 29.7501 2.33338C29.4279 2.33338 29.1667 2.07221 29.1667 1.75005C29.1667 1.42788 29.4279 1.16671 29.7501 1.16671ZM6.47504 17.0427C5.81407 17.8811 5.29844 18.8244 4.94962 19.8334H2.93362C3.85113 18.6108 5.07183 17.6489 6.47504 17.0427ZM1.19645 25.6667H4.10029C4.13339 26.8477 4.29674 28.0215 4.58737 29.1667H2.18403C1.61136 28.0829 1.27478 26.89 1.19645 25.6667ZM10.5 19.8334V16.4133C11.7536 16.7225 12.8672 18.0058 13.6145 19.8334H10.5ZM14.0228 21C14.3455 22.1403 14.5282 23.3156 14.567 24.5H10.5V21H14.0228ZM9.33337 16.4133V19.8334H6.21896C6.96621 18.0058 8.07979 16.7225 9.33337 16.4133ZM9.33337 21V24.5H5.26637C5.30519 23.3156 5.48795 22.1403 5.81062 21H9.33337ZM4.10029 24.5H1.19645C1.27478 23.2767 1.61136 22.0839 2.18403 21H4.58737C4.29674 22.1452 4.13339 23.319 4.10029 24.5ZM5.26695 25.6667H9.33337V29.1667H5.81062C5.48795 28.0264 5.30519 26.8511 5.26637 25.6667H5.26695ZM9.33337 30.3334V33.7535C8.07979 33.4443 6.96621 32.161 6.21896 30.3334H9.33337ZM10.5 33.7535V30.3334H13.6145C12.8672 32.161 11.7536 33.4443 10.5 33.7535ZM10.5 29.1667V25.6667H14.567C14.5282 26.8511 14.3455 28.0264 14.0228 29.1667H10.5ZM15.7331 25.6667H18.637C18.5586 26.89 18.2221 28.0829 17.6494 29.1667H15.246C15.5367 28.0215 15.7 26.8477 15.7331 25.6667ZM15.7331 24.5C15.7 23.319 15.5367 22.1452 15.246 21H17.6494C18.2221 22.0839 18.5586 23.2767 18.637 24.5H15.7331ZM14.8838 19.8334C14.5359 18.8246 14.0212 17.8813 13.3613 17.0427C14.7634 17.6493 15.9831 18.6112 16.8998 19.8334H14.8838ZM2.93362 30.3334H4.94962C5.29755 31.3422 5.81219 32.2855 6.47212 33.124C5.06998 32.5174 3.85033 31.5555 2.93362 30.3334ZM13.3613 33.124C14.0212 32.2855 14.5359 31.3422 14.8838 30.3334H16.8998C15.9831 31.5555 14.7634 32.5174 13.3613 33.124ZM33.8334 25.0834C33.8334 26.0499 33.0499 26.8334 32.0834 26.8334H19.6695C20.203 23.9422 19.4206 20.9636 17.5349 18.708C15.6493 16.4523 12.8567 15.1542 9.91671 15.1667C8.50758 15.1678 7.1151 15.4714 5.83337 16.0569V7.00005C5.83337 6.03355 6.61687 5.25005 7.58337 5.25005H32.0834C33.0499 5.25005 33.8334 6.03355 33.8334 7.00005V25.0834Z" fill="white"/>
<path d="M30.3334 6.41675H9.33337C8.36688 6.41675 7.58337 7.20025 7.58337 8.16675V12.2501C7.58337 13.2166 8.36688 14.0001 9.33337 14.0001H30.3334C31.2999 14.0001 32.0834 13.2166 32.0834 12.2501V8.16675C32.0834 7.20025 31.2999 6.41675 30.3334 6.41675ZM9.33337 7.58341H9.91671V8.75008C9.91671 9.07225 10.1779 9.33341 10.5 9.33341C10.8222 9.33341 11.0834 9.07225 11.0834 8.75008V7.58341H12.25V8.16675C12.25 8.48891 12.5112 8.75008 12.8334 8.75008C13.1555 8.75008 13.4167 8.48891 13.4167 8.16675V7.58341H14.5834V8.75008C14.5834 9.07225 14.8445 9.33341 15.1667 9.33341C15.4889 9.33341 15.75 9.07225 15.75 8.75008V7.58341H16.9167V8.16675C16.9167 8.48891 17.1779 8.75008 17.5 8.75008C17.8222 8.75008 18.0834 8.48891 18.0834 8.16675V7.58341H19.25V8.75008C19.25 9.07225 19.5112 9.33341 19.8334 9.33341C20.1555 9.33341 20.4167 9.07225 20.4167 8.75008V7.58341H21.5834V8.16675C21.5834 8.48891 21.8445 8.75008 22.1667 8.75008C22.4889 8.75008 22.75 8.48891 22.75 8.16675V7.58341H23.9167V8.75008C23.9167 9.07225 24.1779 9.33341 24.5 9.33341C24.8222 9.33341 25.0834 9.07225 25.0834 8.75008V7.58341H26.25V8.16675C26.25 8.48891 26.5112 8.75008 26.8334 8.75008C27.1555 8.75008 27.4167 8.48891 27.4167 8.16675V7.58341H28.5834V8.75008C28.5834 9.07225 28.8445 9.33341 29.1667 9.33341C29.4889 9.33341 29.75 9.07225 29.75 8.75008V7.58341H30.3334C30.6555 7.58341 30.9167 7.84458 30.9167 8.16675V10.5001H8.75004V8.16675C8.75004 7.84458 9.01121 7.58341 9.33337 7.58341ZM30.3334 12.8334H9.33337C9.01121 12.8334 8.75004 12.5722 8.75004 12.2501V11.6667H30.9167V12.2501C30.9167 12.5722 30.6555 12.8334 30.3334 12.8334Z" fill="white"/>
<path d="M25.6667 19.25C25.9889 19.25 26.25 18.9889 26.25 18.6667C26.25 18.3445 25.9889 18.0834 25.6667 18.0834C25.3445 18.0834 25.0834 18.3445 25.0834 18.6667C25.0834 18.9889 25.3445 19.25 25.6667 19.25Z" fill="white"/>
<path d="M31.5 19.8334H31.4598C31.4078 19.4122 31.2985 19 31.1349 18.6084L31.1664 18.5897C31.443 18.4276 31.5369 18.0725 31.3765 17.7948C31.2162 17.5171 30.8618 17.4209 30.583 17.5794L30.5451 17.601C30.2885 17.2638 29.9875 16.9628 29.6503 16.7062L29.6719 16.6682C29.8304 16.3895 29.7341 16.0351 29.4564 15.8748C29.1788 15.7144 28.8237 15.8083 28.6615 16.0849L28.6429 16.1164C28.2513 15.9528 27.8391 15.8435 27.4179 15.7915V15.7501C27.4179 15.4279 27.1567 15.1667 26.8345 15.1667C26.5124 15.1667 26.2512 15.4279 26.2512 15.7501V15.7903C25.83 15.8423 25.4178 15.9516 25.0262 16.1152L25.0075 16.0837C24.9041 15.9018 24.711 15.7892 24.5017 15.7887C24.2924 15.7883 24.0989 15.9 23.9946 16.0815C23.8904 16.263 23.8913 16.4865 23.9972 16.6671L24.0188 16.705C23.6816 16.9617 23.3806 17.2627 23.124 17.5998L23.086 17.5782C22.8073 17.4198 22.4529 17.516 22.2925 17.7937C22.1322 18.0714 22.2261 18.4264 22.5027 18.5886L22.5342 18.6072C22.3706 18.9989 22.2613 19.411 22.2093 19.8322H22.1667C21.8445 19.8322 21.5834 20.0934 21.5834 20.4156C21.5834 20.7377 21.8445 20.9989 22.1667 20.9989H22.207C22.2589 21.4201 22.3683 21.8323 22.5319 22.2239L22.5004 22.2426C22.3184 22.346 22.2058 22.5391 22.2054 22.7484C22.2049 22.9577 22.3166 23.1512 22.4981 23.2555C22.6797 23.3598 22.9031 23.3588 23.0837 23.2529L23.1216 23.2313C23.3783 23.5685 23.6793 23.8695 24.0165 24.1262L23.9949 24.1641C23.889 24.3447 23.888 24.5681 23.9923 24.7496C24.0965 24.9311 24.2901 25.0429 24.4994 25.0424C24.7087 25.042 24.9017 24.9294 25.0052 24.7474L25.0239 24.7159C25.4155 24.8795 25.8276 24.9888 26.2489 25.0408V25.0834C26.2489 25.4056 26.51 25.6667 26.8322 25.6667C27.1544 25.6667 27.4155 25.4056 27.4155 25.0834V25.0432C27.8368 24.9912 28.2489 24.8818 28.6405 24.7182L28.6592 24.7497C28.8214 25.0264 29.1764 25.1202 29.4541 24.9599C29.7318 24.7996 29.828 24.4452 29.6695 24.1664L29.648 24.1285C29.9851 23.8718 30.2861 23.5708 30.5428 23.2337L30.5807 23.2552C30.8595 23.4137 31.2139 23.3175 31.3742 23.0398C31.5345 22.7621 31.4407 22.4071 31.164 22.2449L31.1325 22.2262C31.2962 21.8346 31.4055 21.4225 31.4575 21.0012H31.5C31.8222 21.0012 32.0834 20.7401 32.0834 20.4179C32.0834 20.0957 31.8222 19.8346 31.5 19.8346V19.8334ZM26.8334 23.9167C24.9004 23.9167 23.3334 22.3497 23.3334 20.4167C23.3334 18.4837 24.9004 16.9167 26.8334 16.9167C28.7664 16.9167 30.3334 18.4837 30.3334 20.4167C30.3314 22.3489 28.7656 23.9148 26.8334 23.9167Z" fill="white"/>
<path d="M19.8334 15.7501H17.5001C17.1779 15.7501 16.9167 16.0113 16.9167 16.3335C16.9167 16.6556 17.1779 16.9168 17.5001 16.9168H19.8334C20.1556 16.9168 20.4167 16.6556 20.4167 16.3335C20.4167 16.0113 20.1556 15.7501 19.8334 15.7501Z" fill="white"/>
<path d="M19.8334 18.0834H19.2501C18.9279 18.0834 18.6667 18.3445 18.6667 18.6667C18.6667 18.9889 18.9279 19.25 19.2501 19.25H19.8334C20.1556 19.25 20.4167 18.9889 20.4167 18.6667C20.4167 18.3445 20.1556 18.0834 19.8334 18.0834Z" fill="white"/>
</g>
<defs>
<clipPath id="clip0">
<rect width="35" height="35" fill="white"/>
</clipPath>
</defs>
</svg>
