<svg width="35" height="35" viewBox="0 0 35 35" fill="none" xmlns="http://www.w3.org/2000/svg">
<path d="M16.0416 26.25C16.0416 27.055 16.695 27.7084 17.5 27.7084C18.305 27.7084 18.9583 27.055 18.9583 26.25V8.75002C18.9583 7.94502 18.305 7.29169 17.5 7.29169C16.695 7.29169 16.0416 7.94502 16.0416 8.75002V26.25Z" fill="white"/>
<path d="M1.45833 8.75C0.653331 8.75 0 9.40333 0 10.2083V24.7917C0 25.5967 0.653331 26.25 1.45833 26.25C2.26334 26.25 2.91667 25.5967 2.91667 24.7917V10.2083C2.91667 9.40333 2.26334 8.75 1.45833 8.75Z" fill="white"/>
<path d="M13.8542 23.3333V11.6666C13.8542 10.8616 13.2008 10.2083 12.3958 10.2083C11.5908 10.2083 10.9375 10.8616 10.9375 11.6666V23.3333C10.9375 24.1383 11.5908 24.7916 12.3958 24.7916C13.2008 24.7916 13.8542 24.1383 13.8542 23.3333Z" fill="white"/>
<path d="M7.29171 21.875C8.09671 21.875 8.75004 21.2217 8.75004 20.4167V14.5833C8.75004 13.7783 8.09671 13.125 7.29171 13.125C6.4867 13.125 5.83337 13.7783 5.83337 14.5833V20.4167C5.83337 21.2217 6.4867 21.875 7.29171 21.875Z" fill="white"/>
<path d="M24.0625 23.3333V11.6666C24.0625 10.8616 23.4092 10.2083 22.6042 10.2083C21.7992 10.2083 21.1459 10.8616 21.1459 11.6666V23.3333C21.1459 24.1383 21.7992 24.7916 22.6042 24.7916C23.4092 24.7916 24.0625 24.1383 24.0625 23.3333Z" fill="white"/>
<path d="M33.5417 8.75C32.7367 8.75 32.0834 9.40333 32.0834 10.2083V24.7917C32.0834 25.5967 32.7367 26.25 33.5417 26.25C34.3467 26.25 35 25.5967 35 24.7917V10.2083C35 9.40333 34.3467 8.75 33.5417 8.75Z" fill="white"/>
<path d="M27.7083 13.125C26.9033 13.125 26.25 13.7783 26.25 14.5833V20.4167C26.25 21.2217 26.9033 21.875 27.7083 21.875C28.5133 21.875 29.1667 21.2217 29.1667 20.4167V14.5833C29.1667 13.7783 28.5133 13.125 27.7083 13.125Z" fill="white"/>
<path d="M16.0416 33.5417C16.0416 34.3467 16.695 35 17.5 35C18.305 35 18.9583 34.3467 18.9583 33.5417V32.0833C18.9583 31.2783 18.305 30.625 17.5 30.625C16.695 30.625 16.0416 31.2783 16.0416 32.0833V33.5417Z" fill="white"/>
<path d="M17.5 4.375C18.305 4.375 18.9583 3.72167 18.9583 2.91667V1.45833C18.9583 0.653331 18.305 0 17.5 0C16.695 0 16.0416 0.653331 16.0416 1.45833V2.91667C16.0416 3.72167 16.695 4.375 17.5 4.375Z" fill="white"/>
</svg>
