<svg width="17" height="25" viewBox="0 0 17 25" fill="none" xmlns="http://www.w3.org/2000/svg">
<path d="M7.03516 12.207H3.39644C3.64316 14.8059 5.8377 16.8457 8.5 16.8457C11.1623 16.8457 13.3569 14.8059 13.6036 12.207H9.96484V10.7422H13.627V9.27734H9.96484V7.8125H13.627V6.34766H9.96484V4.88281H13.621C13.4931 2.16875 11.2452 0 8.5 0C5.75483 0 3.50688 2.16875 3.379 4.88281H7.03516V6.34766H3.37305V7.8125H7.03516V9.27734H3.37305V10.7422H7.03516V12.207Z" fill="white"/>
<path d="M15.0918 9.27734V11.7188C15.0918 15.3535 12.1348 18.3105 8.5 18.3105C4.86523 18.3105 1.9082 15.3535 1.9082 11.7188C1.9082 10.6714 1.9082 10.4218 1.9082 9.27734H0.443359V11.7188C0.443359 15.9143 3.66714 19.3705 7.76758 19.7417V23.5352H4.83789V25H12.1621V23.5352H9.23242V19.7417C13.3329 19.3705 16.5566 15.9143 16.5566 11.7188V9.27734H15.0918Z" fill="white"/>
</svg>
