<svg width="25" height="25" viewBox="0 0 25 25" fill="none" xmlns="http://www.w3.org/2000/svg">
<path d="M9.4751 11.5242H3.73184L6.35952 8.89653L4.97959 7.5166L0 12.4961L4.97568 17.5283L6.36338 16.1561L3.71313 13.4758H9.4751V11.5242Z" fill="white"/>
<path d="M20.0204 7.5166L18.6405 8.89653L21.2681 11.5242H15.5249V13.4758H21.2868L18.6366 16.1561L20.0243 17.5283L24.9999 12.4961L20.0204 7.5166Z" fill="white"/>
<path d="M24.9903 7.08472V2.9376C24.9903 1.32344 23.6771 0.0102539 22.0629 0.0102539H2.9376C1.32344 0.0102539 0.0102539 1.32349 0.0102539 2.9376V7.08467H1.96182V2.9376C1.96182 2.39956 2.39956 1.96182 2.9376 1.96182H11.5245V23.0387H2.9376C2.39956 23.0387 1.96182 22.601 1.96182 22.0629V17.8671H0.0102539V22.0629C0.0102539 23.6771 1.32349 24.9903 2.9376 24.9903H22.0629C23.6771 24.9903 24.9903 23.6771 24.9903 22.0629V17.8671H23.0387V22.0629C23.0387 22.601 22.601 23.0387 22.0629 23.0387H13.4761V1.96182H22.0629C22.601 1.96182 23.0387 2.39956 23.0387 2.9376V7.08467H24.9903V7.08472Z" fill="white"/>
</svg>
